<svg width="26" height="26" viewBox="0 0 26 26" fill="none" xmlns="http://www.w3.org/2000/svg">
<path d="M24.375 12.125H23.4628C23.2528 9.65252 22.1753 7.33394 20.4207 5.57934C18.6661 3.82473 16.3475 2.74716 13.875 2.53719V1.625C13.875 1.39294 13.7828 1.17038 13.6187 1.00628C13.4546 0.842187 13.2321 0.75 13 0.75C12.7679 0.75 12.5454 0.842187 12.3813 1.00628C12.2172 1.17038 12.125 1.39294 12.125 1.625V2.53719C9.65252 2.74716 7.33394 3.82473 5.57934 5.57934C3.82473 7.33394 2.74716 9.65252 2.53719 12.125H1.625C1.39294 12.125 1.17038 12.2172 1.00628 12.3813C0.842187 12.5454 0.75 12.7679 0.75 13C0.75 13.2321 0.842187 13.4546 1.00628 13.6187C1.17038 13.7828 1.39294 13.875 1.625 13.875H2.53719C2.74716 16.3475 3.82473 18.6661 5.57934 20.4207C7.33394 22.1753 9.65252 23.2528 12.125 23.4628V24.375C12.125 24.6071 12.2172 24.8296 12.3813 24.9937C12.5454 25.1578 12.7679 25.25 13 25.25C13.2321 25.25 13.4546 25.1578 13.6187 24.9937C13.7828 24.8296 13.875 24.6071 13.875 24.375V23.4628C16.3475 23.2528 18.6661 22.1753 20.4207 20.4207C22.1753 18.6661 23.2528 16.3475 23.4628 13.875H24.375C24.6071 13.875 24.8296 13.7828 24.9937 13.6187C25.1578 13.4546 25.25 13.2321 25.25 13C25.25 12.7679 25.1578 12.5454 24.9937 12.3813C24.8296 12.2172 24.6071 12.125 24.375 12.125ZM13.875 21.7063V20.875C13.875 20.6429 13.7828 20.4204 13.6187 20.2563C13.4546 20.0922 13.2321 20 13 20C12.7679 20 12.5454 20.0922 12.3813 20.2563C12.2172 20.4204 12.125 20.6429 12.125 20.875V21.7063C10.1178 21.5014 8.24274 20.6106 6.81609 19.1839C5.38944 17.7573 4.49855 15.8822 4.29375 13.875H5.125C5.35706 13.875 5.57962 13.7828 5.74372 13.6187C5.90781 13.4546 6 13.2321 6 13C6 12.7679 5.90781 12.5454 5.74372 12.3813C5.57962 12.2172 5.35706 12.125 5.125 12.125H4.29375C4.49855 10.1178 5.38944 8.24274 6.81609 6.81609C8.24274 5.38944 10.1178 4.49855 12.125 4.29375V5.125C12.125 5.35706 12.2172 5.57962 12.3813 5.74372C12.5454 5.90781 12.7679 6 13 6C13.2321 6 13.4546 5.90781 13.6187 5.74372C13.7828 5.57962 13.875 5.35706 13.875 5.125V4.29375C15.8822 4.49855 17.7573 5.38944 19.1839 6.81609C20.6106 8.24274 21.5014 10.1178 21.7063 12.125H20.875C20.6429 12.125 20.4204 12.2172 20.2563 12.3813C20.0922 12.5454 20 12.7679 20 13C20 13.2321 20.0922 13.4546 20.2563 13.6187C20.4204 13.7828 20.6429 13.875 20.875 13.875H21.7063C21.5014 15.8822 20.6106 17.7573 19.1839 19.1839C17.7573 20.6106 15.8822 21.5014 13.875 21.7063ZM13 8.625C12.1347 8.625 11.2888 8.88159 10.5694 9.36232C9.84992 9.84305 9.28916 10.5263 8.95803 11.3258C8.62689 12.1252 8.54025 13.0049 8.70906 13.8535C8.87787 14.7022 9.29455 15.4817 9.90641 16.0936C10.5183 16.7054 11.2978 17.1221 12.1465 17.2909C12.9951 17.4597 13.8748 17.3731 14.6742 17.042C15.4737 16.7108 16.1569 16.1501 16.6377 15.4306C17.1184 14.7112 17.375 13.8653 17.375 13C17.375 11.8397 16.9141 10.7269 16.0936 9.90641C15.2731 9.08594 14.1603 8.625 13 8.625ZM13 15.625C12.4808 15.625 11.9733 15.471 11.5416 15.1826C11.1099 14.8942 10.7735 14.4842 10.5748 14.0045C10.3761 13.5249 10.3242 12.9971 10.4254 12.4879C10.5267 11.9787 10.7767 11.511 11.1438 11.1438C11.511 10.7767 11.9787 10.5267 12.4879 10.4254C12.9971 10.3242 13.5249 10.3761 14.0045 10.5748C14.4842 10.7735 14.8942 11.1099 15.1826 11.5416C15.471 11.9733 15.625 12.4808 15.625 13C15.625 13.6962 15.3484 14.3639 14.8562 14.8562C14.3639 15.3484 13.6962 15.625 13 15.625Z" fill="#562C2C"/>
</svg>
