<svg width="24" height="26" viewBox="0 0 24 26" fill="none" xmlns="http://www.w3.org/2000/svg">
<path d="M21.5653 7.00532V0.75M20.2727 9.09043C20.2727 9.39972 20.3637 9.70207 20.5341 9.95924C20.7046 10.2164 20.9468 10.4169 21.2303 10.5352C21.5137 10.6536 21.8256 10.6845 22.1265 10.6242C22.4274 10.5639 22.7038 10.4149 22.9207 10.1962C23.1376 9.97751 23.2853 9.69887 23.3452 9.39551C23.405 9.09216 23.3743 8.77773 23.2569 8.49197C23.1395 8.20622 22.9407 7.96198 22.6856 7.79015C22.4819 7.65291 22.2496 7.56678 22.008 7.53766C21.8907 7.52352 21.7771 7.47941 21.6939 7.39553V7.39553C21.6115 7.31253 21.5653 7.20036 21.5653 7.08346V6.48404M9.93182 21.6011C7.64648 21.6011 5.79545 19.5003 5.79545 16.9096C5.79545 14.3188 7.64648 12.2181 9.93182 12.2181H10.7591C13.3391 12.2181 15.069 11.7067 17.1113 9.67102C17.1489 9.6335 17.1705 9.58188 17.1705 9.52873V9.52873C17.1705 9.42721 17.0947 9.34165 16.9941 9.32788C15.4618 9.11807 14.5313 8.76969 14.2027 8.62991C14.119 8.5943 14.0682 8.51176 14.0682 8.42078V8.42078C14.0682 8.34961 14.0987 8.28288 14.1545 8.23867C14.4911 7.97188 15.7704 7.0084 17.2559 6.53647C17.358 6.50405 17.429 6.4103 17.429 6.30321V6.30321C17.429 6.2514 17.4122 6.20082 17.3809 6.15958C15.8024 4.0845 13.4216 2.83511 10.7591 2.83511H9.93182C8.88801 2.83404 7.85148 3.01026 6.86574 3.35638M9.93182 21.6011C7.4635 21.6011 5.09627 20.6125 3.3509 18.8529C1.60554 17.0932 0.625 14.7066 0.625 12.2181M9.93182 21.6011C11.02 19.6358 13.0317 18.0302 15.3462 17.9549C15.4398 17.9518 15.5159 18.0281 15.5159 18.1217V18.1217C15.5159 18.1786 15.4884 18.2311 15.4426 18.2647C15.0861 18.526 13.5511 19.7581 13.5511 21.6011C13.5511 23.444 15.0861 24.6761 15.4426 24.9375C15.4884 24.9711 15.5159 25.0235 15.5159 25.0804V25.0804C15.5159 25.1741 15.4398 25.2503 15.3462 25.2472C13.0317 25.172 11.02 23.5663 9.93182 21.6011ZM6.86574 3.35638H6.82955C4.95434 3.35638 3.33073 2.26933 2.84268 1.90786C2.74397 1.83476 2.62597 1.79255 2.50314 1.79255V1.79255C2.30284 1.79255 2.12197 1.90471 2.04811 2.09089C1.67668 3.02722 0.625 6.20894 0.625 12.2181M6.86574 3.35638C5.04233 3.99847 3.46211 5.19635 2.34396 6.78409C1.22581 8.37183 0.625089 10.2708 0.625 12.2181M12 7.00532V4.92021" stroke="#562C2C" stroke-width="1.25"/>
</svg>
