<svg width="28" height="21" viewBox="0 0 28 21" fill="none" xmlns="http://www.w3.org/2000/svg">
<path d="M17.9376 6.75C18.5433 6.75 19.1354 6.57039 19.6391 6.23388C20.1427 5.89737 20.5352 5.41907 20.767 4.85947C20.9988 4.29987 21.0595 3.6841 20.9413 3.09004C20.8231 2.49597 20.5315 1.95029 20.1032 1.52199C19.6749 1.09369 19.1292 0.802014 18.5351 0.683846C17.941 0.565679 17.3253 0.626327 16.7657 0.85812C16.2061 1.08991 15.7278 1.48244 15.3913 1.98607C15.0547 2.48969 14.8751 3.0818 14.8751 3.6875C14.8751 4.49973 15.1978 5.27869 15.7721 5.85302C16.3465 6.42735 17.1254 6.75 17.9376 6.75ZM17.9376 2.375C18.1972 2.375 18.451 2.45198 18.6668 2.5962C18.8827 2.74042 19.0509 2.9454 19.1502 3.18523C19.2496 3.42506 19.2756 3.68896 19.2249 3.94356C19.1743 4.19816 19.0493 4.43202 18.8657 4.61558C18.6822 4.79914 18.4483 4.92414 18.1937 4.97478C17.9391 5.02542 17.6752 4.99943 17.4354 4.90009C17.1955 4.80075 16.9906 4.63253 16.8463 4.41669C16.7021 4.20085 16.6251 3.94709 16.6251 3.6875C16.6251 3.3394 16.7634 3.00557 17.0096 2.75942C17.2557 2.51328 17.5895 2.375 17.9376 2.375ZM27.8776 19.4288L21.9101 9.3575C21.7562 9.09514 21.5361 8.87783 21.2718 8.72733C21.0074 8.57684 20.7082 8.49844 20.404 8.5C20.1 8.49841 19.8009 8.57681 19.5368 8.72731C19.2726 8.87782 19.0527 9.09515 18.899 9.3575L16.0378 14.1875L11.1334 5.86406C10.9789 5.60141 10.7584 5.38367 10.4939 5.23239C10.2293 5.0811 9.92988 5.00152 9.62514 5.00152C9.32039 5.00152 9.02093 5.0811 8.75639 5.23239C8.49185 5.38367 8.2714 5.60141 8.11686 5.86406L0.121543 19.4309C0.043282 19.5638 0.00152705 19.715 0.000507414 19.8692C-0.000512222 20.0234 0.0392397 20.1752 0.115737 20.3091C0.192234 20.443 0.302759 20.5543 0.436117 20.6317C0.569474 20.7091 0.720928 20.7499 0.875137 20.75H27.1251C27.2796 20.75 27.4313 20.7091 27.5648 20.6314C27.6983 20.5538 27.8089 20.4422 27.8853 20.308C27.9617 20.1738 28.0013 20.0218 28 19.8674C27.9986 19.7129 27.9564 19.5616 27.8776 19.4288ZM9.62514 6.75L12.2031 11.125H7.04717L9.62514 6.75ZM2.40639 19L6.01576 12.875H13.2345L15.2842 16.3531L16.8439 19H2.40639ZM18.875 19L17.0528 15.9069L20.404 10.25L25.5939 19H18.875Z" fill="#562C2C"/>
</svg>
